<svg width="24" height="25" viewBox="0 0 24 25" fill="none" xmlns="http://www.w3.org/2000/svg">
<path d="M3.74181 21.0545C4.94143 22.5 7.17414 22.5 11.6395 22.5H12.3607C16.8261 22.5 19.0589 22.5 20.2585 21.0545M3.74181 21.0545C2.54219 19.6091 2.95365 17.4146 3.77657 13.0257C4.36179 9.90452 4.65441 8.34393 5.7653 7.42196M3.74181 21.0545C3.74181 21.0545 3.74181 21.0545 3.74181 21.0545ZM20.2585 21.0545C21.4581 19.6091 21.0466 17.4146 20.2237 13.0257C19.6385 9.90452 19.3459 8.34393 18.235 7.42196M20.2585 21.0545C20.2585 21.0545 20.2585 21.0545 20.2585 21.0545ZM18.235 7.42196C17.1241 6.5 15.5363 6.5 12.3607 6.5H11.6395C8.46398 6.5 6.8762 6.5 5.7653 7.42196M18.235 7.42196C18.235 7.42196 18.235 7.42196 18.235 7.42196ZM5.7653 7.42196C5.7653 7.42196 5.7653 7.42196 5.7653 7.42196Z" stroke="white" stroke-width="1.5"/>
<path d="M10 14.8C10.5207 15.2686 10.8126 15.5314 11.3333 16L14 13" stroke="white" stroke-width="1.5" stroke-linecap="round" stroke-linejoin="round"/>
<path d="M9 6.5V5.5C9 3.84315 10.3431 2.5 12 2.5C13.6569 2.5 15 3.84315 15 5.5V6.5" stroke="white" stroke-width="1.5" stroke-linecap="round"/>
</svg>
