<svg width="20" height="20" viewBox="0 0 20 20" fill="none" xmlns="http://www.w3.org/2000/svg">
<path d="M10.9054 17.8231L11.4432 18.1414L11.4432 18.1414L10.9054 17.8231ZM11.3571 17.0598L10.8193 16.7415L10.8193 16.7415L11.3571 17.0598ZM8.6425 17.0598L8.10466 17.3782L8.10466 17.3782L8.6425 17.0598ZM9.09425 17.8231L9.6321 17.5047L9.6321 17.5047L9.09425 17.8231ZM1.98367 13.2612L2.5611 13.022L2.5611 13.022L1.98367 13.2612ZM6.49115 15.8262L6.48038 16.4511L6.48038 16.4511L6.49115 15.8262ZM4.23865 15.5161L3.99948 16.0936L3.99948 16.0936L4.23865 15.5161ZM18.016 13.2612L18.5934 13.5003L18.5934 13.5003L18.016 13.2612ZM13.5085 15.8262L13.4977 15.2013L13.4977 15.2013L13.5085 15.8262ZM15.761 15.5161L16.0002 16.0936L16.0002 16.0936L15.761 15.5161ZM16.3436 2.28066L16.017 2.81356L16.017 2.81356L16.3436 2.28066ZM17.7192 3.65624L18.2521 3.32968L18.2521 3.32968L17.7192 3.65624ZM3.65609 2.28066L3.32953 1.74776L3.32953 1.74776L3.65609 2.28066ZM2.2805 3.65624L1.7476 3.32968L1.7476 3.32968L2.2805 3.65624ZM7.83549 16.0082L8.14972 15.4679L8.14972 15.4679L7.83549 16.0082ZM11.4432 18.1414L11.895 17.3782L10.8193 16.7415L10.3675 17.5047L11.4432 18.1414ZM8.10466 17.3782L8.55641 18.1414L9.6321 17.5047L9.18035 16.7415L8.10466 17.3782ZM10.3675 17.5047C10.2069 17.7761 9.79273 17.7761 9.6321 17.5047L8.55641 18.1414C9.20105 19.2305 10.7986 19.2305 11.4432 18.1414L10.3675 17.5047ZM8.74983 2.29166H11.2498V1.04166H8.74983V2.29166ZM17.7082 8.74999V9.58332H18.9582V8.74999H17.7082ZM2.2915 9.58332V8.74999H1.0415V9.58332H2.2915ZM1.0415 9.58332C1.0415 10.5455 1.04117 11.2984 1.0826 11.9057C1.12442 12.5186 1.21086 13.0286 1.40625 13.5003L2.5611 13.022C2.43931 12.728 2.36717 12.3698 2.3297 11.8206C2.29184 11.2657 2.2915 10.5626 2.2915 9.58332H1.0415ZM6.50192 15.2013C5.45572 15.1833 4.90753 15.1167 4.47783 14.9387L3.99948 16.0936C4.67029 16.3714 5.43431 16.4331 6.48038 16.4511L6.50192 15.2013ZM1.40625 13.5003C1.89257 14.6744 2.82539 15.6072 3.99948 16.0936L4.47783 14.9387C3.61002 14.5793 2.92055 13.8898 2.5611 13.022L1.40625 13.5003ZM17.7082 9.58332C17.7082 10.5626 17.7078 11.2657 17.67 11.8206C17.6325 12.3698 17.5604 12.728 17.4386 13.022L18.5934 13.5003C18.7888 13.0286 18.8752 12.5186 18.9171 11.9057C18.9585 11.2984 18.9582 10.5455 18.9582 9.58332H17.7082ZM13.5192 16.4511C14.5653 16.4331 15.3294 16.3714 16.0002 16.0936L15.5218 14.9387C15.0921 15.1167 14.5439 15.1833 13.4977 15.2013L13.5192 16.4511ZM17.4386 13.022C17.0791 13.8898 16.3896 14.5793 15.5218 14.9387L16.0002 16.0936C17.1743 15.6072 18.1071 14.6744 18.5934 13.5003L17.4386 13.022ZM11.2498 2.29166C12.6259 2.29166 13.614 2.29232 14.3848 2.3656C15.1462 2.438 15.6307 2.57685 16.017 2.81356L16.6701 1.74776C16.0545 1.37046 15.356 1.20231 14.5031 1.12121C13.6594 1.041 12.6017 1.04166 11.2498 1.04166V2.29166ZM18.9582 8.74999C18.9582 7.39816 18.9588 6.3404 18.8786 5.49674C18.7975 4.64379 18.6294 3.94537 18.2521 3.32968L17.1863 3.98281C17.423 4.36908 17.5618 4.8536 17.6342 5.61506C17.7075 6.38582 17.7082 7.37395 17.7082 8.74999H18.9582ZM16.017 2.81356C16.4936 3.10559 16.8942 3.50626 17.1863 3.98281L18.2521 3.32968C17.857 2.68494 17.3149 2.14286 16.6701 1.74776L16.017 2.81356ZM8.74983 1.04166C7.39801 1.04166 6.34025 1.041 5.49659 1.12121C4.64363 1.20231 3.94521 1.37046 3.32953 1.74776L3.98265 2.81356C4.36892 2.57685 4.85345 2.438 5.61491 2.3656C6.38567 2.29232 7.3738 2.29166 8.74983 2.29166V1.04166ZM2.2915 8.74999C2.2915 7.37395 2.29216 6.38582 2.36545 5.61506C2.43785 4.8536 2.5767 4.36908 2.8134 3.98281L1.7476 3.32968C1.37031 3.94537 1.20216 4.64379 1.12106 5.49674C1.04084 6.3404 1.0415 7.39816 1.0415 8.74999H2.2915ZM3.32953 1.74776C2.68479 2.14286 2.1427 2.68494 1.7476 3.32968L2.8134 3.98281C3.10543 3.50626 3.5061 3.10559 3.98265 2.81356L3.32953 1.74776ZM9.18035 16.7415C9.01116 16.4556 8.86263 16.2034 8.71822 16.0053C8.56611 15.7966 8.39163 15.6086 8.14972 15.4679L7.52127 16.5484C7.56077 16.5714 7.6146 16.6133 7.70804 16.7415C7.80918 16.8803 7.92345 17.072 8.10466 17.3782L9.18035 16.7415ZM6.48038 16.4511C6.8463 16.4574 7.07806 16.462 7.25474 16.4816C7.41982 16.4999 7.48382 16.5267 7.52127 16.5484L8.14972 15.4679C7.90575 15.326 7.65189 15.2679 7.39231 15.2392C7.14432 15.2117 6.84462 15.2072 6.50192 15.2013L6.48038 16.4511ZM11.895 17.3782C12.0762 17.072 12.1904 16.8803 12.2916 16.7415C12.385 16.6133 12.4389 16.5714 12.4784 16.5484L11.8499 15.4679C11.608 15.6086 11.4335 15.7966 11.2814 16.0053C11.137 16.2034 10.9885 16.4556 10.8193 16.7415L11.895 17.3782ZM13.4977 15.2013C13.155 15.2072 12.8553 15.2117 12.6073 15.2392C12.3477 15.2679 12.0939 15.326 11.8499 15.4679L12.4784 16.5484C12.5158 16.5267 12.5798 16.4999 12.7449 16.4816C12.9216 16.462 13.1533 16.4574 13.5192 16.4511L13.4977 15.2013Z" fill="#333333"/>
<path d="M7.0835 9.16665C7.0835 9.39676 6.89695 9.58331 6.66683 9.58331C6.43671 9.58331 6.25016 9.39676 6.25016 9.16665C6.25016 8.93653 6.43671 8.74998 6.66683 8.74998C6.89695 8.74998 7.0835 8.93653 7.0835 9.16665ZM10.4168 9.16665C10.4168 9.39676 10.2303 9.58331 10.0002 9.58331C9.77004 9.58331 9.58349 9.39676 9.58349 9.16665C9.58349 8.93653 9.77004 8.74998 10.0002 8.74998C10.2303 8.74998 10.4168 8.93653 10.4168 9.16665ZM13.7502 9.16665C13.7502 9.39676 13.5636 9.58331 13.3335 9.58331C13.1034 9.58331 12.9168 9.39676 12.9168 9.16665C12.9168 8.93653 13.1034 8.74998 13.3335 8.74998C13.5636 8.74998 13.7502 8.93653 13.7502 9.16665Z" fill="#1C274C" stroke="#333333" stroke-width="0.833333"/>
</svg>
