<svg  width="18" height="16" viewBox="0 0 18 16" fill="none" stroke="none" xmlns="http://www.w3.org/2000/svg">
<path  d="M5.66666 1.95834C3.71184 1.95834 2.125 3.54519 2.125 5.50001C2.125 7.87656 3.33809 9.83314 4.86866 11.312C6.30621 12.701 7.97146 13.6151 9.00003 14.003C10.0289 13.6152 11.6941 12.7028 13.1315 11.315C14.6617 9.83742 15.875 7.88089 15.875 5.50001C15.875 3.53767 14.289 1.95834 12.3333 1.95834C11.1778 1.95834 10.1447 2.51068 9.50098 3.37369C9.38327 3.5315 9.1981 3.62462 9.00123 3.62501C8.80436 3.6254 8.61882 3.53301 8.50049 3.37567C7.85448 2.51669 6.82753 1.95834 5.66666 1.95834ZM0.875 5.50001C0.875 2.85483 3.02149 0.708344 5.66666 0.708344C6.96507 0.708344 8.13889 1.22537 8.99876 2.05735C9.86238 1.2192 11.0429 0.708344 12.3333 0.708344C14.9777 0.708344 17.125 2.84568 17.125 5.50001C17.125 8.33579 15.6757 10.5959 13.9997 12.2142C12.328 13.8284 10.3723 14.8635 9.19968 15.2589C9.07014 15.3026 8.92985 15.3026 8.80031 15.2589C7.62729 14.8634 5.67158 13.8259 4.00009 12.2109C2.3244 10.5919 0.875 8.33178 0.875 5.50001Z" fill="currentColor"/>
</svg>
