<svg width="100%" height="100%" viewBox="0 0 16 16" fill="none" xmlns="http://www.w3.org/2000/svg">
<path fill-rule="evenodd" clip-rule="evenodd" d="M3.74973 3.05194C2.64374 3.55749 1.8335 4.75997 1.8335 6.19388C1.8335 7.65881 2.43297 8.78797 3.29235 9.75566C4.00065 10.5532 4.85805 11.2142 5.69425 11.8589C5.89285 12.012 6.09026 12.1642 6.28419 12.3171C6.63488 12.5935 6.94771 12.8362 7.24924 13.0124C7.55092 13.1887 7.79376 13.2691 8.00016 13.2691C8.20656 13.2691 8.4494 13.1887 8.75109 13.0124C9.05262 12.8362 9.36544 12.5935 9.71613 12.3171C9.91006 12.1642 10.1075 12.012 10.3061 11.8589C11.1423 11.2142 11.9997 10.5532 12.708 9.75566C13.5674 8.78797 14.1668 7.65881 14.1668 6.19388C14.1668 4.75997 13.3566 3.55749 12.2506 3.05194C11.2684 2.60297 9.97761 2.67311 8.71515 3.77732L9.68699 4.7488C9.88228 4.94403 9.88234 5.26061 9.68711 5.45591C9.49189 5.65121 9.1753 5.65126 8.98001 5.45604L7.64667 4.12319L7.63992 4.1163C6.26794 2.69086 4.82421 2.5608 3.74973 3.05194ZM8.00016 3.07502C6.45879 1.69597 4.7328 1.50306 3.334 2.14245C1.85664 2.81776 0.833496 4.38583 0.833496 6.19388C0.833496 7.9709 1.57383 9.32651 2.54464 10.4197C3.32208 11.2951 4.27365 12.0278 5.11405 12.6749C5.30455 12.8216 5.48935 12.9638 5.66511 13.1024C6.0066 13.3716 6.37319 13.6587 6.74471 13.8758C7.11607 14.0928 7.5399 14.2691 8.00016 14.2691C8.46043 14.2691 8.88426 14.0928 9.25562 13.8758C9.62713 13.6587 9.99373 13.3716 10.3352 13.1024C10.511 12.9638 10.6958 12.8216 10.8863 12.6749C11.7267 12.0278 12.6782 11.2951 13.4557 10.4197C14.4265 9.32651 15.1668 7.9709 15.1668 6.19388C15.1668 4.38583 14.1437 2.81776 12.6663 2.14245C11.2675 1.50306 9.54153 1.69597 8.00016 3.07502Z" fill="currentColor"/>
</svg>
