<svg width="100%" height="100%" viewBox="0 0 16 17" fill="none" xmlns="http://www.w3.org/2000/svg">
<rect width="100%" height="100%" transform="translate(0 0.256836)" fill="#EDEAE9"/>
<path fill-rule="evenodd" clip-rule="evenodd" d="M3.33333 2.75684C3.11232 2.75684 2.90036 2.84463 2.74408 3.00091C2.5878 3.15719 2.5 3.36916 2.5 3.59017V12.9235C2.5 13.1445 2.5878 13.3565 2.74408 13.5128C2.90036 13.669 3.11232 13.7568 3.33333 13.7568H6C6.27614 13.7568 6.5 13.9807 6.5 14.2568C6.5 14.533 6.27614 14.7568 6 14.7568H3.33333C2.8471 14.7568 2.38079 14.5637 2.03697 14.2199C1.69315 13.876 1.5 13.4097 1.5 12.9235V3.59017C1.5 3.10394 1.69315 2.63762 2.03697 2.29381C2.38079 1.94999 2.8471 1.75684 3.33333 1.75684H6C6.27614 1.75684 6.5 1.98069 6.5 2.25684C6.5 2.53298 6.27614 2.75684 6 2.75684H3.33333Z" fill="currentColor"/>
<path fill-rule="evenodd" clip-rule="evenodd" d="M10.313 4.57027C10.5082 4.37501 10.8248 4.37501 11.0201 4.57027L14.3534 7.90361C14.5487 8.09887 14.5487 8.41545 14.3534 8.61071L11.0201 11.944C10.8248 12.1393 10.5082 12.1393 10.313 11.944C10.1177 11.7488 10.1177 11.4322 10.313 11.2369L13.2927 8.25716L10.313 5.27738C10.1177 5.08212 10.1177 4.76554 10.313 4.57027Z" fill="currentColor"/>
<path fill-rule="evenodd" clip-rule="evenodd" d="M5.5 8.25684C5.5 7.98069 5.72386 7.75684 6 7.75684H14C14.2761 7.75684 14.5 7.98069 14.5 8.25684C14.5 8.53298 14.2761 8.75684 14 8.75684H6C5.72386 8.75684 5.5 8.53298 5.5 8.25684Z" fill="currentColor"/>
</svg>
