<svg width="100%" height="100%" viewBox="0 0 16 17" fill="none" xmlns="http://www.w3.org/2000/svg">
<path fill-rule="evenodd" clip-rule="evenodd" d="M8.34212 2.58073C8.11576 2.5421 7.88392 2.5421 7.65755 2.58073L7.57925 2.5941L7.49535 2.10251L7.57925 2.5941C6.87929 2.71356 6.3442 3.22275 6.20463 3.85797C6.15052 4.10424 6.13999 4.35601 6.17223 4.60324C7.38464 4.43982 8.61504 4.43982 9.82745 4.60324C9.85968 4.35601 9.84916 4.10424 9.79505 3.85797C9.65548 3.22275 9.12039 2.71356 8.42043 2.5941L8.34212 2.58073ZM10.8133 4.77417C10.8672 4.40005 10.8539 4.01746 10.7718 3.64336C10.54 2.58856 9.66738 1.79246 8.58867 1.60835L8.51036 1.59499C8.17265 1.53735 7.82703 1.53735 7.48931 1.59499L7.41101 1.60835C6.3323 1.79246 5.45969 2.58857 5.22793 3.64337C5.14573 4.01746 5.13249 4.40005 5.18633 4.77417C3.85598 5.08108 2.79137 6.06757 2.43911 7.3631L2.38808 7.55074L2.86858 7.68139L2.38808 7.55074C2.02282 8.89406 2.11095 10.3135 2.6391 11.6051L2.70102 11.7566C3.2679 13.143 4.55216 14.1276 6.06615 14.3632L6.5653 14.4409C7.51542 14.5887 8.48423 14.5887 9.43435 14.4409L9.93352 14.3632C11.4475 14.1276 12.7318 13.143 13.2986 11.7566L13.3606 11.6051C13.8887 10.3135 13.9769 8.89406 13.6116 7.55073L13.5606 7.3631C13.2083 6.06756 12.1437 5.08108 10.8133 4.77417ZM9.50098 5.56979C9.42148 5.81153 9.53724 6.07871 9.77502 6.1832C10.0278 6.29429 10.3228 6.17941 10.4339 5.9266L10.5188 5.7334C11.5424 5.94293 12.3392 6.6824 12.5956 7.62548L12.6466 7.81312C12.954 8.94355 12.8802 10.1378 12.435 11.2267L12.373 11.3781C11.9449 12.4251 10.9637 13.1908 9.77975 13.3751L9.28059 13.4528C8.43236 13.5848 7.56729 13.5848 6.71907 13.4528L6.21991 13.3751C5.03593 13.1908 4.05472 12.4251 3.62664 11.3781L3.56471 11.2267C3.11947 10.1378 3.04567 8.94356 3.35305 7.81312L3.40407 7.62548C3.6605 6.6824 4.4573 5.94293 5.48085 5.7334L5.56575 5.9266C5.67685 6.17941 5.97185 6.29429 6.22466 6.1832C6.46244 6.07871 6.5782 5.81153 6.49869 5.56979C7.49557 5.45097 8.50411 5.45097 9.50098 5.56979Z" fill="currentColor"/>
</svg>
