<svg width="100%" height="100%" viewBox="0 0 16 17" fill="none" xmlns="http://www.w3.org/2000/svg">
<g clip-path="url(#clip0_753_42078)">
<rect width="100%" height="100%" transform="translate(0 0.154297)" fill="#EDEAE9"/>
<path fill-rule="evenodd" clip-rule="evenodd" d="M5.88672 8.13464C5.88672 6.96517 6.83724 6.01465 8.00671 6.01465C9.17619 6.01465 10.1267 6.96517 10.1267 8.13464C10.1267 9.30412 9.17619 10.2546 8.00671 10.2546C6.83724 10.2546 5.88672 9.30412 5.88672 8.13464ZM8.00671 7.01465C7.38952 7.01465 6.88672 7.51745 6.88672 8.13464C6.88672 8.75183 7.38952 9.25464 8.00671 9.25464C8.6239 9.25464 9.12671 8.75183 9.12671 8.13464C9.12671 7.51745 8.6239 7.01465 8.00671 7.01465Z" fill="#141519"/>
<path fill-rule="evenodd" clip-rule="evenodd" d="M7.98669 2.66113C7.77498 2.66113 7.5651 2.73242 7.4032 2.86024C7.23263 2.99489 7.10963 3.18188 7.05782 3.38482L7.05632 3.39068L7.05468 3.3965C6.89903 3.94992 6.52958 4.4202 6.04284 4.71054L6.03724 4.71388L6.03721 4.71384C5.54603 4.99821 4.95286 5.08471 4.39879 4.94619L4.38799 4.94349L4.37732 4.94031C4.17779 4.88088 3.96213 4.8921 3.75757 4.9766C3.55561 5.06001 3.38865 5.20941 3.28331 5.39814C3.17839 5.58613 3.13665 5.81521 3.16835 6.03708C3.19978 6.25709 3.30267 6.45885 3.45667 6.60429L3.46573 6.61284L3.47435 6.62184C3.87098 7.03572 4.09338 7.59329 4.09338 8.16779C4.09338 8.74227 3.87099 9.29987 3.47435 9.71375L3.46816 9.72021L3.46175 9.72644C3.30571 9.87802 3.19896 10.0842 3.16835 10.2985L3.16764 10.3034L3.16684 10.3083C3.1328 10.5168 3.17488 10.7432 3.28331 10.9374C3.38865 11.1262 3.55561 11.2756 3.75757 11.359L3.76118 11.3605L3.76117 11.3605C3.95538 11.4425 4.17624 11.4552 4.37732 11.3953L4.38885 11.3918L4.40054 11.3889C4.95992 11.2513 5.54579 11.3372 6.03721 11.6218L6.04286 11.625L6.04284 11.6251C6.52745 11.9141 6.89908 12.3772 7.05522 12.941L7.05526 12.9412C7.11238 13.1477 7.2351 13.3277 7.40097 13.4551C7.5791 13.5868 7.78124 13.6545 7.98669 13.6545C8.1965 13.6545 8.40338 13.5842 8.57003 13.457C8.73709 13.3295 8.8607 13.1487 8.91811 12.9412L8.91815 12.941C9.0743 12.3771 9.44599 11.9141 9.93058 11.6251L9.93385 11.6231L9.93386 11.6231C10.4359 11.3288 11.0238 11.2517 11.5746 11.3894L11.584 11.3917L11.5934 11.3945C11.8095 11.4575 12.0258 11.4469 12.2225 11.3657C12.423 11.2828 12.5928 11.1332 12.7065 10.9386C12.8151 10.7466 12.856 10.5278 12.8256 10.3028C12.7877 10.0774 12.6826 9.87537 12.5301 9.7313L12.521 9.72275L12.5124 9.71375C12.1157 9.29985 11.8934 8.74224 11.8934 8.16779C11.8934 7.59333 12.1157 7.03574 12.5124 6.62184L12.521 6.61284L12.5301 6.60429C12.6903 6.45299 12.7944 6.25564 12.8249 6.03846C12.8571 5.80805 12.8143 5.5822 12.7078 5.3991C12.5941 5.20351 12.4238 5.05307 12.2225 4.96992C12.025 4.88836 11.803 4.8787 11.5961 4.94031L11.5854 4.94349L11.5746 4.94619C11.0187 5.08517 10.4365 4.99768 9.94389 4.70386C9.60535 4.50193 9.32889 4.21443 9.13928 3.87509L9.04846 3.90536L8.91556 3.38482C8.86374 3.18185 8.74076 2.99487 8.57022 2.86024C8.40833 2.73243 8.19841 2.66113 7.98669 2.66113ZM9.6806 2.64056C9.55395 2.42289 9.38661 2.23068 9.18986 2.07535C8.84508 1.80316 8.41497 1.66113 7.98669 1.66113C7.55839 1.66113 7.12833 1.80317 6.78356 2.07535C6.44926 2.33927 6.19977 2.70971 6.09065 3.13062C6.00577 3.42749 5.80373 3.6878 5.53337 3.85004C5.26779 4.00281 4.9461 4.04966 4.65035 3.97827C4.2269 3.85527 3.78061 3.88513 3.37581 4.05233C2.96443 4.22225 2.62478 4.52617 2.41012 4.91078C2.19504 5.29613 2.11676 5.74704 2.1784 6.1785C2.23964 6.60715 2.43966 7.01453 2.75955 7.32131C2.97181 7.54673 3.09338 7.85248 3.09338 8.16779C3.09338 8.48409 2.97104 8.7908 2.75753 9.01642C2.45209 9.31629 2.24221 9.71848 2.17911 10.1522C2.10796 10.5954 2.19933 11.0472 2.41012 11.4248C2.62446 11.8089 2.96343 12.1124 3.374 12.2825C3.77509 12.4514 4.2282 12.4796 4.64938 12.3576C4.9526 12.2856 5.26823 12.333 5.53338 12.4856C5.80728 12.6499 6.00786 12.906 6.09145 13.2078C6.20739 13.6269 6.45714 13.9928 6.79671 14.2519L6.79669 14.252L6.8017 14.2557C7.14294 14.5094 7.55313 14.6545 7.98669 14.6545C8.41688 14.6545 8.83669 14.5114 9.1767 14.2519C9.51631 13.9928 9.766 13.6269 9.88192 13.2078C9.96563 12.9056 10.1667 12.6491 10.4412 12.4849C10.7098 12.328 11.0246 12.2848 11.3241 12.3576C11.7449 12.4778 12.1911 12.4606 12.6042 12.2899C13.0163 12.1197 13.3527 11.8168 13.5723 11.4391L13.5723 11.4391L13.5748 11.4348C13.7978 11.0423 13.8766 10.5972 13.8152 10.1585L13.8144 10.1528L13.8135 10.1472C13.7447 9.72604 13.5472 9.32119 13.2272 9.01429C13.0149 8.78889 12.8934 8.48313 12.8934 8.16779C12.8934 7.85247 13.0149 7.54675 13.2271 7.32135C13.5412 7.02045 13.753 6.62168 13.8152 6.17711C13.8763 5.74086 13.7992 5.28671 13.5723 4.89648C13.3527 4.51873 13.0163 4.21585 12.6042 4.04566C12.1925 3.87559 11.7394 3.85723 11.323 3.97828C11.0284 4.04946 10.7209 4.00294 10.4562 3.84505C10.1867 3.68429 9.98688 3.42315 9.90136 3.11908L9.75939 2.61429L9.6806 2.64056Z" fill="#141519"/>
</g>
<defs>
<clipPath id="clip0_753_42078">
<rect width="100%" height="100%" fill="white" transform="translate(0 0.154297)"/>
</clipPath>
</defs>
</svg>
