<svg width="100%" height="100%" viewBox="0 0 32 32" fill="none" xmlns="http://www.w3.org/2000/svg">
<ellipse cx="15.8573" cy="15.9266" rx="15.4286" ry="15.4706" fill="currentColor"/>
<path opacity="0.5" d="M9.49563 15.0364C9.84833 13.1502 10.0247 12.2071 10.6942 11.6499C11.3637 11.0928 12.3206 11.0928 14.2345 11.0928H17.4816C19.3955 11.0928 20.3524 11.0928 21.0219 11.6499C21.6914 12.2071 21.8678 13.1502 22.2205 15.0364L22.8231 18.2594C23.3191 20.9117 23.5671 22.2379 22.8441 23.1114C22.1211 23.9849 20.7755 23.9849 18.0843 23.9849H13.6318C10.9406 23.9849 9.59498 23.9849 8.872 23.1114C8.14901 22.2379 8.39699 20.9117 8.89295 18.2594L9.49563 15.0364Z" fill="white"/>
<path d="M14.0501 10.2862C14.0501 9.28498 14.8596 8.47329 15.8581 8.47329C16.8567 8.47329 17.6662 9.28498 17.6662 10.2862V11.092C17.6662 11.092 17.6662 11.092 17.6662 11.092C18.121 11.0922 18.5194 11.0934 18.8714 11.104C18.8715 11.1 18.8715 11.096 18.8715 11.092V10.2862C18.8715 8.61746 17.5224 7.26465 15.8581 7.26465C14.1939 7.26465 12.8447 8.61746 12.8447 10.2862V11.092C12.8447 11.096 12.8448 11.1 12.8448 11.104C13.1968 11.0934 13.5952 11.0922 14.0501 11.092C14.0501 11.092 14.0501 11.092 14.0501 11.092V10.2862Z" fill="white"/>
</svg>
