<svg width="100%" height="100%" viewBox="0 0 24 25" fill="none" xmlns="http://www.w3.org/2000/svg">
<path fill-rule="evenodd" clip-rule="evenodd" d="M12 22.5C17.5228 22.5 22 18.0228 22 12.5C22 6.97715 17.5228 2.5 12 2.5C6.47715 2.5 2 6.97715 2 12.5C2 18.0228 6.47715 22.5 12 22.5ZM10.8613 9.86335L10.7302 10.0985C10.5862 10.3568 10.5142 10.4859 10.402 10.5711C10.2897 10.6563 10.1499 10.688 9.87035 10.7512L9.61581 10.8088C8.63195 11.0314 8.14001 11.1427 8.02297 11.5191C7.90593 11.8955 8.2413 12.2876 8.91204 13.072L9.08557 13.2749C9.27617 13.4978 9.37147 13.6092 9.41435 13.7471C9.45722 13.885 9.44281 14.0336 9.41399 14.331L9.38776 14.6018C9.28635 15.6482 9.23565 16.1715 9.54206 16.4041C9.84847 16.6367 10.3091 16.4246 11.2303 16.0005L11.4686 15.8907C11.7304 15.7702 11.8613 15.7099 12 15.7099C12.1387 15.7099 12.2696 15.7702 12.5314 15.8907L12.7697 16.0005C13.6909 16.4246 14.1515 16.6367 14.4579 16.4041C14.7644 16.1715 14.7136 15.6482 14.6122 14.6018L14.586 14.331C14.5572 14.0336 14.5428 13.885 14.5857 13.7471C14.6285 13.6092 14.7238 13.4978 14.9144 13.2749L15.088 13.072C15.7587 12.2876 16.0941 11.8955 15.977 11.5191C15.86 11.1427 15.3681 11.0314 14.3842 10.8088L14.1296 10.7512C13.8501 10.688 13.7103 10.6563 13.598 10.5711C13.4858 10.4859 13.4138 10.3568 13.2698 10.0985L13.1387 9.86335C12.6321 8.95445 12.3787 8.5 12 8.5C11.6213 8.5 11.3679 8.95446 10.8613 9.86335Z" fill="currentColor"/>
</svg>
