<svg width="100%" height="100%" viewBox="0 0 16 17" fill="none" xmlns="http://www.w3.org/2000/svg">
<g clip-path="url(#clip0_753_42084)">
<path fill-rule="evenodd" clip-rule="evenodd" d="M7.06752 2.78507C4.79325 3.16369 2.9528 5.01029 2.58043 7.28475C2.39008 8.47718 2.57503 9.60749 3.03796 10.576L3.04375 10.5885C3.10626 10.7292 3.1505 10.8981 3.17234 11.0597C3.19303 11.2128 3.20062 11.4096 3.15128 11.5956L2.73946 13.296L2.73891 13.2982C2.71085 13.4118 2.72548 13.463 2.73284 13.4789C2.7488 13.4863 2.79999 13.5009 2.91359 13.4729L2.91868 13.4716L2.91869 13.4716C3.26823 13.3892 3.6445 13.2976 3.98353 13.2151C4.22629 13.1561 4.44996 13.1017 4.63104 13.0585C4.80491 13.0168 4.99227 13.0193 5.1497 13.0387C5.30858 13.0583 5.48375 13.101 5.63518 13.1735C6.65552 13.6559 7.83422 13.8399 9.08629 13.6005L9.08771 13.6002C11.3584 13.173 13.0475 11.4256 13.4269 9.14296C13.4286 9.13302 13.4305 9.12319 13.4327 9.11348C14.0234 5.362 10.826 2.1819 7.06752 2.78507ZM14.4064 9.34808C14.4092 9.33639 14.4116 9.32454 14.4136 9.31251C15.1424 4.86726 11.3494 1.08408 6.90751 1.79795L6.90751 1.79794L6.90486 1.79838C4.2067 2.24687 2.03463 4.42622 1.5934 7.12425L1.59339 7.12425L1.59311 7.12605C1.37087 8.51679 1.58447 9.84991 2.13198 10.9994C2.14913 11.0398 2.17029 11.1118 2.18135 11.1936C2.1868 11.234 2.18882 11.2698 2.18821 11.2985C2.18767 11.3238 2.18522 11.3365 2.18483 11.3386C2.18475 11.339 2.18475 11.339 2.18485 11.3386C2.18345 11.3437 2.18213 11.3488 2.18089 11.3539L1.7681 13.0584C1.76801 13.0588 1.76791 13.0592 1.76781 13.0596C1.67041 13.4551 1.72294 13.8848 2.02496 14.1868C2.32655 14.4884 2.75551 14.5412 3.15059 14.4444C3.49555 14.363 3.88678 14.2678 4.23303 14.1836C4.47538 14.1247 4.69568 14.0711 4.86266 14.0313L4.86417 14.031C4.8832 14.0264 4.94187 14.0207 5.02732 14.0312C5.1111 14.0415 5.17513 14.0619 5.20327 14.0754L5.20636 14.0769C6.41223 14.6474 7.80617 14.8632 9.27335 14.5829C11.9486 14.0792 13.9457 12.0185 14.4064 9.34808ZM2.72706 13.4756C2.72709 13.4755 2.72784 13.4759 2.7292 13.4771C2.7277 13.4762 2.72702 13.4756 2.72706 13.4756ZM2.73472 13.4826C2.73586 13.4839 2.7363 13.4847 2.73623 13.4847C2.73617 13.4848 2.73559 13.4841 2.73472 13.4826Z" fill="#141519"/>
<path fill-rule="evenodd" clip-rule="evenodd" d="M5.7002 8.20508C5.7002 7.92894 5.92405 7.70508 6.2002 7.70508H9.80019C10.0763 7.70508 10.3002 7.92894 10.3002 8.20508C10.3002 8.48122 10.0763 8.70508 9.80019 8.70508H6.2002C5.92405 8.70508 5.7002 8.48122 5.7002 8.20508Z" fill="#141519"/>
</g>
<defs>
<clipPath id="clip0_753_42084">
<rect width="100%" height="100%" fill="white" transform="translate(0 0.205078)"/>
</clipPath>
</defs>
</svg>
