<svg width="100%" height="100%" viewBox="0 0 16 16" fill="none" xmlns="http://www.w3.org/2000/svg">
<path fill-rule="evenodd" clip-rule="evenodd" d="M8.00016 0.833008C6.25126 0.833008 4.8335 2.25077 4.8335 3.99967C4.8335 5.74858 6.25126 7.16634 8.00016 7.16634C9.74906 7.16634 11.1668 5.74858 11.1668 3.99967C11.1668 2.25077 9.74906 0.833008 8.00016 0.833008ZM5.8335 3.99967C5.8335 2.80306 6.80355 1.83301 8.00016 1.83301C9.19678 1.83301 10.1668 2.80306 10.1668 3.99967C10.1668 5.19629 9.19678 6.16634 8.00016 6.16634C6.80355 6.16634 5.8335 5.19629 5.8335 3.99967Z" fill="#333333"/>
<path fill-rule="evenodd" clip-rule="evenodd" d="M8.00016 8.16634C6.64061 8.16634 5.38517 8.48018 4.45226 9.01327C3.53349 9.53828 2.8335 10.3398 2.8335 11.333C2.8335 12.3263 3.53349 13.1277 4.45226 13.6527C5.38517 14.1858 6.64061 14.4997 8.00016 14.4997C9.35972 14.4997 10.6152 14.1858 11.5481 13.6527C12.4668 13.1277 13.1668 12.3263 13.1668 11.333C13.1668 10.3398 12.4668 9.53828 11.5481 9.01327C10.6152 8.48018 9.35972 8.16634 8.00016 8.16634ZM3.8335 11.333C3.8335 10.8535 4.17817 10.3216 4.9484 9.88151C5.70449 9.44946 6.78239 9.16634 8.00016 9.16634C9.21794 9.16634 10.2958 9.44946 11.0519 9.88151C11.8222 10.3216 12.1668 10.8535 12.1668 11.333C12.1668 11.8125 11.8222 12.3444 11.0519 12.7845C10.2958 13.2166 9.21794 13.4997 8.00016 13.4997C6.78239 13.4997 5.70449 13.2166 4.9484 12.7845C4.17817 12.3444 3.8335 11.8125 3.8335 11.333Z" fill="#333333"/>
</svg>
