<svg width="21" height="20" viewBox="0 0 21 20" fill="none" xmlns="http://www.w3.org/2000/svg">
<path fill-rule="evenodd" clip-rule="evenodd" d="M0.75 4.23001C0.75 2.03581 2.53576 0.25 4.72998 0.25H16.27C18.4642 0.25 20.25 2.03581 20.25 4.23001V15.77C20.25 17.9642 18.4642 19.75 16.27 19.75H4.72998C2.53576 19.75 0.75 17.9642 0.75 15.77V4.23001ZM4.72998 1.75C3.3642 1.75 2.25 2.86422 2.25 4.23001V15.77C2.25 17.1358 3.3642 18.25 4.72998 18.25H16.27C17.6358 18.25 18.75 17.1358 18.75 15.77V4.23001C18.75 2.86422 17.6358 1.75 16.27 1.75H4.72998Z" fill="white"/>
</svg>
