<svg width="16" height="16" viewBox="0 0 16 16" fill="none" xmlns="http://www.w3.org/2000/svg">
<path opacity="0.5" d="M13.8985 5.80862C14.9223 4.78482 14.9223 3.12491 13.8985 2.1011C12.8747 1.0773 11.2148 1.0773 10.191 2.1011L9.59961 2.69246C9.60771 2.71692 9.61611 2.74171 9.62482 2.76682C9.84157 3.39158 10.2505 4.21059 11.0199 4.97993C11.7892 5.74927 12.6082 6.15824 13.233 6.375C13.258 6.38367 13.2827 6.39203 13.307 6.40009L13.8985 5.80862Z" fill="#333333"/>
<path d="M9.6254 2.66699L9.59994 2.69245C9.60803 2.71691 9.61643 2.7417 9.62514 2.76681C9.8419 3.39157 10.2509 4.21058 11.0202 4.97992C11.7896 5.74927 12.6086 6.15823 13.2333 6.37499C13.2581 6.38359 13.2826 6.39188 13.3067 6.39988L7.59974 12.1068C7.21499 12.4916 7.02257 12.684 6.81045 12.8495C6.56022 13.0446 6.28947 13.212 6.00299 13.3485C5.76014 13.4642 5.50202 13.5503 4.98579 13.7224L2.26357 14.6298C2.00953 14.7144 1.72945 14.6483 1.5401 14.459C1.35074 14.2696 1.28463 13.9895 1.36931 13.7355L2.27671 11.0133C2.44879 10.497 2.53483 10.2389 2.65057 9.99608C2.7871 9.7096 2.95443 9.43885 3.14961 9.18862C3.31505 8.9765 3.50744 8.78411 3.89217 8.39938L9.6254 2.66699Z" fill="#333333"/>
</svg>
