<svg width="16" height="16" viewBox="0 0 16 16" fill="none" xmlns="http://www.w3.org/2000/svg">
<path opacity="0.5" d="M14.6663 7.99992C14.6663 11.6818 11.6816 14.6666 7.99967 14.6666C4.31778 14.6666 1.33301 11.6818 1.33301 7.99992C1.33301 4.31802 4.31778 1.33325 7.99967 1.33325C11.6816 1.33325 14.6663 4.31802 14.6663 7.99992Z" fill="#333333"/>
<path d="M6.94215 5.66533L7.05138 5.46938C7.4736 4.71196 7.68471 4.33325 8.00033 4.33325C8.31595 4.33325 8.52705 4.71196 8.94927 5.46938L9.05851 5.66534C9.17849 5.88057 9.23847 5.98818 9.33201 6.05919C9.42555 6.13019 9.54204 6.15655 9.77503 6.20927L9.98715 6.25726C10.807 6.44277 11.217 6.53552 11.3145 6.84916C11.4121 7.1628 11.1326 7.48961 10.5736 8.14323L10.429 8.31233C10.2702 8.49806 10.1908 8.59093 10.155 8.70582C10.1193 8.82072 10.1313 8.94462 10.1553 9.19244L10.1772 9.41805C10.2617 10.2901 10.304 10.7262 10.0486 10.92C9.79327 11.1138 9.40943 10.9371 8.64177 10.5836L8.44316 10.4922C8.22502 10.3918 8.11594 10.3415 8.00033 10.3415C7.88471 10.3415 7.77563 10.3918 7.55749 10.4922L7.35887 10.5836C6.59121 10.9371 6.20738 11.1138 5.95204 10.92C5.6967 10.7262 5.73895 10.2901 5.82346 9.41805L5.84532 9.19244C5.86933 8.94462 5.88134 8.82072 5.84561 8.70582C5.80989 8.59093 5.73047 8.49806 5.57163 8.31233L5.42702 8.14323C4.86808 7.48961 4.5886 7.1628 4.68613 6.84916C4.78366 6.53553 5.19362 6.44277 6.0135 6.25726L6.22562 6.20927C6.45861 6.15655 6.5751 6.13019 6.66864 6.05919C6.76218 5.98818 6.82217 5.88056 6.94215 5.66533Z" fill="#333333"/>
</svg>
