<svg width="16" height="16" viewBox="0 0 16 16" fill="none" xmlns="http://www.w3.org/2000/svg">
<g clip-path="url(#clip0_674_37825)">
<path fill-rule="evenodd" clip-rule="evenodd" d="M7.99967 1.83325C4.59392 1.83325 1.83301 4.59416 1.83301 7.99992C1.83301 11.4057 4.59392 14.1666 7.99967 14.1666C11.4054 14.1666 14.1663 11.4057 14.1663 7.99992C14.1663 4.59416 11.4054 1.83325 7.99967 1.83325ZM0.833008 7.99992C0.833008 4.04188 4.04163 0.833252 7.99967 0.833252C11.9577 0.833252 15.1663 4.04188 15.1663 7.99992C15.1663 11.958 11.9577 15.1666 7.99967 15.1666C4.04163 15.1666 0.833008 11.958 0.833008 7.99992ZM7.99967 5.93358C7.92038 6.05124 7.82269 6.2247 7.67725 6.4856L7.58986 6.64237C7.58337 6.65401 7.57668 6.66617 7.56975 6.67876C7.49736 6.81029 7.39903 6.98898 7.23665 7.11225C7.07127 7.23779 6.87184 7.28169 6.72925 7.31308C6.71571 7.31606 6.70269 7.31892 6.69025 7.32174L6.52056 7.36013C6.21044 7.4303 6.01718 7.47521 5.88731 7.52061C5.96761 7.64125 6.10239 7.8006 6.32103 8.05627L6.43672 8.19155C6.44523 8.2015 6.4541 8.21177 6.46325 8.22237C6.56175 8.33639 6.69279 8.48808 6.75335 8.68284C6.81329 8.87557 6.793 9.07498 6.77749 9.2274C6.77604 9.24163 6.77463 9.25546 6.77334 9.26883L6.75585 9.44932C6.7246 9.77175 6.70535 9.98032 6.7059 10.1279C6.83404 10.0824 7.00955 10.0027 7.2774 9.87939L7.43629 9.80624C7.44798 9.80085 7.46022 9.79513 7.47298 9.78916C7.60487 9.72744 7.79198 9.63988 7.99967 9.63988C8.20737 9.63988 8.39448 9.72744 8.52637 9.78916C8.53913 9.79513 8.55137 9.80085 8.56306 9.80624L8.72195 9.87939C8.9898 10.0027 9.16531 10.0824 9.29345 10.1279C9.294 9.98032 9.27474 9.77175 9.2435 9.44932L9.22601 9.26883C9.22471 9.25546 9.22331 9.24163 9.22186 9.2274C9.20635 9.07498 9.18606 8.87557 9.246 8.68284C9.30656 8.48808 9.4376 8.33639 9.5361 8.22237C9.54525 8.21177 9.55412 8.2015 9.56263 8.19155L9.67832 8.05627C9.89696 7.8006 10.0317 7.64125 10.112 7.52061C9.98217 7.47521 9.78891 7.4303 9.47879 7.36013L9.3091 7.32174C9.29666 7.31892 9.28364 7.31606 9.2701 7.31308C9.12751 7.28169 8.92807 7.23779 8.7627 7.11225C8.60032 6.98898 8.50199 6.81029 8.4296 6.67876C8.42267 6.66617 8.41598 6.65401 8.40949 6.64237L8.3221 6.4856C8.17666 6.2247 8.07897 6.05124 7.99967 5.93358ZM9.43496 10.1667C9.43571 10.1667 9.43611 10.1668 9.43612 10.1668L9.43496 10.1667ZM6.56323 10.1668C6.56324 10.1668 6.56364 10.1667 6.56438 10.1667L6.56323 10.1668ZM7.25511 5.25648C7.39889 5.06873 7.63365 4.83325 7.99967 4.83325C8.3657 4.83325 8.60046 5.06873 8.74424 5.25648C8.8827 5.43728 9.02442 5.69159 9.17855 5.96818C9.1842 5.97833 9.18987 5.9885 9.19556 5.9987L9.28295 6.15546C9.30748 6.19948 9.32646 6.2335 9.34331 6.26266C9.35463 6.28226 9.36351 6.29707 9.37066 6.30849C9.38188 6.31159 9.39606 6.31527 9.41425 6.3197C9.44559 6.32733 9.48204 6.33559 9.52978 6.34639L9.69947 6.38479C9.71104 6.3874 9.72259 6.39001 9.7341 6.39262C10.032 6.45998 10.3101 6.52285 10.5201 6.6056C10.7476 6.69527 11.0225 6.85687 11.1285 7.19751C11.2327 7.53269 11.1044 7.82206 10.9748 8.02798C10.853 8.22145 10.665 8.44124 10.4607 8.68001L10.3226 8.84147C10.2901 8.87947 10.2651 8.90877 10.2438 8.93445C10.2264 8.9555 10.2143 8.97071 10.2057 8.98219C10.2068 9.01932 10.2116 9.0716 10.2213 9.17237L10.2421 9.38681C10.2731 9.70631 10.3014 9.99792 10.2912 10.2276C10.2806 10.4662 10.2243 10.7856 9.94062 11.0009C9.64882 11.2224 9.32279 11.1792 9.09154 11.113C8.87511 11.0509 8.61507 10.9312 8.33625 10.8027C8.32543 10.7977 8.31459 10.7927 8.30371 10.7877L8.14483 10.7146C8.10014 10.694 8.06595 10.6783 8.03624 10.6652C8.02161 10.6587 8.00961 10.6536 7.99967 10.6495C7.98974 10.6536 7.97774 10.6587 7.96311 10.6652C7.9334 10.6783 7.89921 10.694 7.85452 10.7146L7.69564 10.7877C7.68476 10.7927 7.67392 10.7977 7.6631 10.8027C7.38428 10.9312 7.12424 11.0509 6.90781 11.113C6.67656 11.1792 6.35053 11.2224 6.05873 11.0009C5.77508 10.7856 5.71878 10.4662 5.70815 10.2276C5.69792 9.99792 5.72622 9.70632 5.75722 9.38683L5.778 9.17237C5.78777 9.0716 5.79253 9.01932 5.79366 8.98219C5.78503 8.97071 5.77297 8.9555 5.75553 8.93445C5.73425 8.90877 5.70921 8.87947 5.67672 8.84147L5.56103 8.70619C5.55354 8.69744 5.54608 8.6887 5.53863 8.68C5.33439 8.44124 5.14638 8.22145 5.02459 8.02798C4.89496 7.82206 4.76664 7.53269 4.87087 7.19751C4.9768 6.85687 5.25171 6.69527 5.47924 6.6056C5.68923 6.52285 5.96731 6.45998 6.26525 6.39262C6.27676 6.39001 6.28831 6.3874 6.29988 6.38479L6.46957 6.34639C6.51731 6.33559 6.55376 6.32733 6.5851 6.3197C6.60329 6.31527 6.61747 6.31159 6.62869 6.3085C6.63583 6.29707 6.64471 6.28226 6.65604 6.26266C6.67289 6.2335 6.69187 6.19948 6.7164 6.15546L6.80379 5.9987C6.80948 5.9885 6.81515 5.97832 6.8208 5.96818C6.97493 5.69159 7.11665 5.43728 7.25511 5.25648Z" fill="#333333"/>
</g>
<defs>
<clipPath id="clip0_674_37825">
<rect width="16" height="16" fill="white"/>
</clipPath>
</defs>
</svg>
