<svg width="16" height="16" viewBox="0 0 16 16" fill="none" xmlns="http://www.w3.org/2000/svg">
<path d="M2 4.34912C2 4.08613 2.21781 3.87293 2.48648 3.87293H5.67858C5.68292 3.31212 5.7437 2.54328 6.30025 2.01104C6.73824 1.59218 7.33872 1.33325 7.99999 1.33325C8.66127 1.33325 9.26174 1.59218 9.69974 2.01104C10.2563 2.54328 10.3171 3.31212 10.3214 3.87293H13.5135C13.7822 3.87293 14 4.08613 14 4.34912C14 4.61212 13.7822 4.82532 13.5135 4.82532H2.48648C2.21781 4.82532 2 4.61212 2 4.34912Z" fill="#333333"/>
<path opacity="0.5" d="M7.73008 14.6668H8.26927C10.1244 14.6668 11.052 14.6668 11.6551 14.0761C12.2582 13.4855 12.3199 12.5167 12.4433 10.5791L12.6211 7.78715C12.688 6.73583 12.7215 6.21016 12.419 5.87705C12.1164 5.54395 11.6055 5.54395 10.5836 5.54395H5.4157C4.39385 5.54395 3.88293 5.54395 3.58038 5.87705C3.27782 6.21016 3.3113 6.73583 3.37826 7.78716L3.55607 10.5791C3.67947 12.5167 3.74117 13.4855 4.34427 14.0761C4.94736 14.6668 5.87493 14.6668 7.73008 14.6668Z" fill="#333333"/>
<path fill-rule="evenodd" clip-rule="evenodd" d="M6.28329 7.65426C6.55806 7.62534 6.80309 7.83636 6.83056 8.1256L7.1639 11.6344C7.19137 11.9236 6.9909 12.1815 6.71613 12.2104C6.44136 12.2394 6.19634 12.0283 6.16886 11.7391L5.83553 8.23034C5.80805 7.9411 6.00852 7.68319 6.28329 7.65426Z" fill="#333333"/>
<path fill-rule="evenodd" clip-rule="evenodd" d="M9.71613 7.65426C9.9909 7.68319 10.1914 7.9411 10.1639 8.23034L9.83056 11.7391C9.80309 12.0283 9.55807 12.2394 9.28329 12.2104C9.00852 12.1815 8.80805 11.9236 8.83553 11.6344L9.16886 8.1256C9.19634 7.83636 9.44136 7.62534 9.71613 7.65426Z" fill="#333333"/>
</svg>
